inDegrees=yes
name=ik_S54_A11_T01
DataType=double
version=3
OpenSimVersion=4.3-2021-08-27-4bc7ad9
endheader
time	pelvis_tilt	pelvis_list	pelvis_rotation	pelvis_tx	pelvis_ty	pelvis_tz	hip_flexion_r	hip_adduction_r	hip_rotation_r	knee_angle_r	knee_angle_r_beta	ankle_angle_r	subtalar_angle_r	mtp_angle_r	hip_flexion_l	hip_adduction_l	hip_rotation_l	knee_angle_l	knee_angle_l_beta	ankle_angle_l	subtalar_angle_l	mtp_angle_l	lumbar_extension	lumbar_bending	lumbar_rotation	arm_flex_r	arm_add_r	arm_rot_r	elbow_flex_r	pro_sup_r	wrist_flex_r	wrist_dev_r	arm_flex_l	arm_add_l	arm_rot_l	elbow_flex_l	pro_sup_l	wrist_flex_l	wrist_dev_l
14.43999999999978	0.866415964185857	-0.7958733915833844	30.2225942367291	0	0.9399999999999999	0	33.96730429975113	-9.715553605408946	-9.215888654885047	38.07274796530827	0.6644948072766013	0	0	0	33.96730429975113	-9.715553605408946	-9.215888654885047	38.07274796530827	0.6644948072766013	0	0	0	0.7807123397083916	-0.5906567209688146	25.49087442709851	50.38307182589057	-31.76315001632296	-7.033631015136278	108.1718099732029	30.58576139577251	0	0	2.85105297155814	-6.219329727142938	-1.722873297526733	5.685849486506868	111.3287380139592	0	0
14.45999999999978	0.7177000722156643	-0.9174198609132191	29.90655766422389	0	0.9399999999999999	0	33.98061843544954	-9.716730068791053	-9.217967828066266	38.08704791085169	0.6647443884091897	0	0	0	33.98061843544954	-9.716730068791053	-9.217967828066266	38.08704791085169	0.6647443884091897	0	0	0	0.5932539375542347	-0.6219944136789558	25.65684931207657	47.76729367862387	-32.70508270974175	-7.972271014369763	109.5171639157489	30.67808737322347	0	0	3.131485188309662	-6.170848023015467	-1.601609481652892	5.695429931741851	111.407488575483	0	0
14.47999999999978	0.7268964469973157	-0.9227029703896065	29.65259857943095	0	0.9399999999999999	0	33.98709726007609	-9.717299757242513	-9.218976712009539	38.09402563690588	0.6648661727031374	0	0	0	33.98709726007609	-9.717299757242513	-9.218976712009539	38.09402563690588	0.6648661727031374	0	0	0	0.6028206404900268	-0.6345829864463023	25.91643826290665	44.55051380474299	-33.39347307596281	-9.147273304662527	110.3065320125272	31.2646523840988	0	0	3.079650795398563	-6.239090386175025	-1.331006539146372	5.69074853365862	111.490671592272	0	0
14.49999999999978	0.6212765628903356	-0.9068275225625978	29.31381025277618	0	0.9399999999999999	0	33.99270005806078	-9.717791254569054	-9.219848027576978	38.10006652594959	0.6649716061066978	0	0	0	33.99270005806078	-9.717791254569054	-9.219848027576978	38.10006652594959	0.6649716061066978	0	0	0	0.517243808694736	-0.5633858252275871	26.02519335884609	41.56208838742505	-33.76593654239388	-9.725199940738815	110.6925768404619	32.16143132194246	0	0	3.147487600411325	-6.058838460942434	-1.573116256559531	5.629102987936064	111.8565072892608	0	0
14.51999999999978	0.5188615714105809	-0.6663510651602771	28.8071135073597	0	0.9399999999999999	0	33.99848987507799	-9.718298643640376	-9.220748019621547	38.10630856539222	0.6650805502470112	0	0	0	33.99848987507799	-9.718298643640376	-9.220748019621547	38.10630856539222	0.6650805502470112	0	0	0	0.5386334937764929	-0.2961437645827107	26.09702145535364	38.32312220413267	-33.99842158041376	-9.931549548828519	110.6327581776791	33.36495898256462	0	0	2.771319450519018	-5.637386815636488	-1.744549755228557	5.632502175708153	111.9269114211849	0	0
14.53999999999978	0.5226067312941914	-0.6582382423560698	28.56052292284892	0	0.9399999999999999	0	34.00748610335237	-9.719087250581012	-9.222147062054743	38.11599255682662	0.6652495677822764	0	0	0	34.00748610335237	-9.719087250581012	-9.222147062054743	38.11599255682662	0.6652495677822764	0	0	0	0.545581891648025	-0.291422010682496	26.33129140431798	35.00302880234327	-34.25549035281169	-11.26165408524334	111.7376445058785	34.03392612140624	0	0	2.6927618612682	-5.624067777474561	-1.478522396515455	5.626045566618332	111.9252378855378	0	0
14.55999999999978	0.3745482656154229	-0.51426106721218	28.00277443321412	0	0.9399999999999999	0	34.12697647092195	-9.726480127242947	-9.237152753502691	38.27897735134744	0.6680941890773511	0	0	0	34.12697647092195	-9.726480127242947	-9.237152753502691	38.27897735134744	0.6680941890773511	0	0	0	0.4910344063560093	-0.1092125401833184	26.42675604838132	28.48052483979422	-34.37890070365592	-13.29942195555519	113.8045998786729	35.83308421700422	0	0	2.52165351615188	-5.26627191827881	-1.682859986356015	5.709956242479175	111.990413792997	0	0
14.57999999999978	0.3171799019447325	-0.3347707996110614	27.53570089456609	0	0.9399999999999999	0	34.13770340962498	-9.727400458488889	-9.238801480803261	38.29057080768676	0.6682965330621585	0	0	0	34.13770340962498	-9.727400458488889	-9.238801480803261	38.29057080768676	0.6682965330621585	0	0	0	0.5298529999234823	0.07338075219716644	26.5624777085422	28.6033485834967	-33.77909673615849	-12.15971750030331	109.2839337472282	38.58505465797862	0	0	2.203158280140288	-4.96133875685357	-1.787262041807517	5.791753540624149	112.0881349682912	0	0
14.59999999999978	0.3079674391631916	-0.2165291970554198	26.95339896145374	0	0.9399999999999999	0	34.1507084885984	-9.72851823545817	-9.240803485354858	38.30457669378702	0.6685409818892672	0	0	0	34.1507084885984	-9.72851823545817	-9.240803485354858	38.30457669378702	0.6685409818892672	0	0	0	0.5016610966905688	0.2085191127326611	26.94851094410135	25.40691625475803	-32.02096502486425	-12.31882026982914	100.8161398967339	46.53734440129964	0	0	1.945960932939783	-4.772617709064571	-1.449712439215066	5.893468145801437	111.5177754819319	0	0
14.61999999999978	0.2362018977934822	-0.1696544377613635	26.51708557903386	0	0.9399999999999999	0	34.27119808332075	-9.735708887305472	-9.2556319678657	38.4707960309339	0.6714420566029627	0	0	0	34.27119808332075	-9.735708887305472	-9.2556319678657	38.4707960309339	0.6714420566029627	0	0	0	0.4687508429497342	0.3036396419828243	27.24353285358045	19.57639362512488	-31.33554004878488	-14.83676670279323	99.69697723597093	51.30652565295285	0	0	1.868032305112137	-4.617158197931799	-1.308259896674445	5.971264617441348	111.5715045543527	0	0
14.63999999999978	0.2008933958708343	-0.1367788860764395	26.21527114582784	0	0.9399999999999999	0	34.28320468303932	-9.736718975247552	-9.257458819352435	38.48377300692005	0.6716685475608734	0	0	0	34.28320468303932	-9.736718975247552	-9.257458819352435	38.48377300692005	0.6716685475608734	0	0	0	0.4595394280942176	0.3410429244182211	27.43829512008336	19.75748046856358	-30.61679008085647	-14.42720575951032	95.90387282309024	54.427918107495	0	0	1.803008872857539	-4.58939733589345	-1.190294423380942	6.008235183862326	112.0363313949818	0	0
14.65999999999978	0.1626996487191246	-0.000827100460360063	25.67709340231396	0	0.9399999999999999	0	34.29554434087004	-9.737757640511523	-9.259337815549458	38.49707583177103	0.6719007256543392	0	0	0	34.29554434087004	-9.737757640511523	-9.259337815549458	38.49707583177103	0.6719007256543392	0	0	0	0.4918533756255705	0.4582211984796432	27.67537244113931	17.32720869480731	-28.88746762497494	-14.99676453611592	90.15734011140833	61.09807339889685	0	0	1.569640776890283	-4.436163563740354	-1.262061025643624	6.065636062253779	112.1579668505641	0	0
14.67999999999978	0.1999674261300627	-0.01248703174089252	25.38814451264303	0	0.9399999999999999	0	34.30833244335157	-9.738830101376955	-9.261281336098142	38.51087728653811	0.6721416064815897	0	0	0	34.30833244335157	-9.738830101376955	-9.261281336098142	38.51087728653811	0.6721416064815897	0	0	0	0.4731126874506761	0.4985835406682629	27.96332459095185	15.10412117851003	-26.63879846710968	-15.83033262167711	83.07678084247364	68.62201118746501	0	0	1.553032192937854	-4.430335619517112	-1.27968435067466	6.078185645160719	112.532002771003	0	0
14.69999999999978	0.1801000523713133	0.1203296200910379	24.87564435954096	0	0.9399999999999999	0	34.32107905630662	-9.739896366624544	-9.263216268160532	38.52463395385709	0.6723817056204074	0	0	0	34.32107905630662	-9.739896366624544	-9.263216268160532	38.52463395385709	0.6723817056204074	0	0	0	0.5148213517650683	0.6331893140595045	28.11975002293567	13.05817383427493	-24.55870483855895	-16.19107665346186	76.07187186807131	75.86990035557461	0	0	1.313720306748364	-4.265722894043619	-1.396997566492695	6.102830717956203	112.6676593361793	0	0
